STARTFONT 2.1
FONT -Monotype-Book Antiqua-Bold-I-Normal--10-100-75-75-P-56-iso8859-2
SIZE 10 75 75
FONTBOUNDINGBOX 13 13 -2 -3

STARTPROPERTIES 24
FOUNDRY "Monotype"
FAMILY_NAME "Book Antiqua"
WEIGHT_NAME "Bold"
SLANT "I"
SETWIDTH_NAME "Normal"
ADD_STYLE_NAME ""
PIXEL_SIZE 10
POINT_SIZE 100
RESOLUTION_X 75
RESOLUTION_Y 75
SPACING "P"
AVERAGE_WIDTH 56
CHARSET_REGISTRY "iso8859"
CHARSET_ENCODING "2"
FACE_NAME "Book Antiqua Bold Italic ISO Latin2"
_DEC_DEVICE_FONTNAMES "PS=bookantiqua-bit-lat2"
COPYRIGHT "Copyright (c) 1994 Monotype Typography Ltd."
CAP_HEIGHT 8
X_HEIGHT 6
WEIGHT 10
QUAD_WIDTH 6
DEFAULT_CHAR 160
FONT_DESCENT 3
FONT_ASCENT 10
ENDPROPERTIES

CHARS 191

STARTCHAR space
ENCODING 32
SWIDTH 250 0
DWIDTH 3 0
BBX 0 0 0 0
BITMAP
ENDCHAR

STARTCHAR exclam
ENCODING 33
SWIDTH 333 0
DWIDTH 3 0
BBX 3 7 1 0
BITMAP
60
60
C0
C0
00
C0
C0
ENDCHAR

STARTCHAR quotedbl
ENCODING 34
SWIDTH 500 0
DWIDTH 5 0
BBX 3 3 1 4
BITMAP
A0
A0
A0
ENDCHAR

STARTCHAR numbersign
ENCODING 35
SWIDTH 606 0
DWIDTH 6 0
BBX 6 7 0 0
BITMAP
28
28
7C
28
FC
50
50
ENDCHAR

STARTCHAR dollar
ENCODING 36
SWIDTH 500 0
DWIDTH 5 0
BBX 5 9 0 -1
BITMAP
10
38
68
60
30
18
98
F0
20
ENDCHAR

STARTCHAR percent
ENCODING 37
SWIDTH 889 0
DWIDTH 9 0
BBX 9 7 0 0
BITMAP
6200
A400
A400
C980
1280
1280
2300
ENDCHAR

STARTCHAR ampersand
ENCODING 38
SWIDTH 833 0
DWIDTH 8 0
BBX 8 7 0 0
BITMAP
38
68
31
6E
D6
C4
78
ENDCHAR

STARTCHAR quoteright
ENCODING 39
SWIDTH 278 0
DWIDTH 3 0
BBX 2 3 1 4
BITMAP
C0
40
80
ENDCHAR

STARTCHAR parenleft
ENCODING 40
SWIDTH 333 0
DWIDTH 3 0
BBX 3 9 0 -2
BITMAP
20
60
40
C0
C0
C0
C0
40
40
ENDCHAR

STARTCHAR parenright
ENCODING 41
SWIDTH 333 0
DWIDTH 3 0
BBX 3 9 0 -2
BITMAP
40
40
60
60
60
60
40
C0
80
ENDCHAR

STARTCHAR asterisk
ENCODING 42
SWIDTH 444 0
DWIDTH 4 0
BBX 5 5 0 2
BITMAP
20
A8
70
A8
20
ENDCHAR

STARTCHAR plus
ENCODING 43
SWIDTH 606 0
DWIDTH 6 0
BBX 5 5 1 1
BITMAP
20
20
F8
20
20
ENDCHAR

STARTCHAR comma
ENCODING 44
SWIDTH 250 0
DWIDTH 3 0
BBX 2 3 0 -2
BITMAP
C0
40
80
ENDCHAR

STARTCHAR minus
ENCODING 45
SWIDTH 606 0
DWIDTH 6 0
BBX 5 1 1 3
BITMAP
F8
ENDCHAR

STARTCHAR period
ENCODING 46
SWIDTH 250 0
DWIDTH 3 0
BBX 2 2 0 0
BITMAP
C0
C0
ENDCHAR

STARTCHAR slash
ENCODING 47
SWIDTH 315 0
DWIDTH 3 0
BBX 6 9 -1 -2
BITMAP
04
0C
18
10
30
60
40
C0
80
ENDCHAR

STARTCHAR zero
ENCODING 48
SWIDTH 500 0
DWIDTH 5 0
BBX 4 7 1 0
BITMAP
20
70
B0
B0
B0
A0
40
ENDCHAR

STARTCHAR one
ENCODING 49
SWIDTH 500 0
DWIDTH 5 0
BBX 5 7 0 0
BITMAP
08
78
30
30
60
60
F0
ENDCHAR

STARTCHAR two
ENCODING 50
SWIDTH 500 0
DWIDTH 5 0
BBX 5 7 0 0
BITMAP
30
58
18
10
20
40
F0
ENDCHAR

STARTCHAR three
ENCODING 51
SWIDTH 500 0
DWIDTH 5 0
BBX 5 7 0 0
BITMAP
30
58
18
70
30
B0
E0
ENDCHAR

STARTCHAR four
ENCODING 52
SWIDTH 500 0
DWIDTH 5 0
BBX 6 7 0 0
BITMAP
08
18
38
58
FC
30
78
ENDCHAR

STARTCHAR five
ENCODING 53
SWIDTH 500 0
DWIDTH 5 0
BBX 6 7 0 0
BITMAP
3C
20
70
18
18
B0
E0
ENDCHAR

STARTCHAR six
ENCODING 54
SWIDTH 500 0
DWIDTH 5 0
BBX 5 7 1 0
BITMAP
18
20
40
E0
B0
B0
60
ENDCHAR

STARTCHAR seven
ENCODING 55
SWIDTH 500 0
DWIDTH 5 0
BBX 4 7 1 0
BITMAP
F0
F0
20
40
40
80
80
ENDCHAR

STARTCHAR eight
ENCODING 56
SWIDTH 500 0
DWIDTH 5 0
BBX 5 7 0 0
BITMAP
30
58
58
70
B0
B0
60
ENDCHAR

STARTCHAR nine
ENCODING 57
SWIDTH 500 0
DWIDTH 5 0
BBX 5 7 0 0
BITMAP
30
68
68
38
10
20
C0
ENDCHAR

STARTCHAR colon
ENCODING 58
SWIDTH 250 0
DWIDTH 3 0
BBX 3 5 0 0
BITMAP
60
00
00
00
C0
ENDCHAR

STARTCHAR semicolon
ENCODING 59
SWIDTH 250 0
DWIDTH 3 0
BBX 3 7 0 -2
BITMAP
60
00
00
00
C0
40
80
ENDCHAR

STARTCHAR less
ENCODING 60
SWIDTH 606 0
DWIDTH 6 0
BBX 5 5 1 1
BITMAP
08
30
C0
30
08
ENDCHAR

STARTCHAR equal
ENCODING 61
SWIDTH 606 0
DWIDTH 6 0
BBX 5 3 1 2
BITMAP
F8
00
F8
ENDCHAR

STARTCHAR greater
ENCODING 62
SWIDTH 606 0
DWIDTH 6 0
BBX 5 5 1 1
BITMAP
80
60
18
60
80
ENDCHAR

STARTCHAR question
ENCODING 63
SWIDTH 444 0
DWIDTH 4 0
BBX 4 7 1 0
BITMAP
60
B0
20
60
00
C0
C0
ENDCHAR

STARTCHAR at
ENCODING 64
SWIDTH 833 0
DWIDTH 8 0
BBX 8 8 0 -1
BITMAP
3C
42
9D
B5
B6
9C
42
3C
ENDCHAR

STARTCHAR A
ENCODING 65
SWIDTH 722 0
DWIDTH 7 0
BBX 8 7 -1 0
BITMAP
02
06
0E
16
3E
46
EF
ENDCHAR

STARTCHAR B
ENCODING 66
SWIDTH 667 0
DWIDTH 7 0
BBX 8 7 -1 0
BITMAP
7E
33
33
7E
66
66
FC
ENDCHAR

STARTCHAR C
ENCODING 67
SWIDTH 685 0
DWIDTH 7 0
BBX 6 7 1 0
BITMAP
3C
64
C0
C0
C0
C8
70
ENDCHAR

STARTCHAR D
ENCODING 68
SWIDTH 778 0
DWIDTH 8 0
BBX 8 7 -1 0
BITMAP
7E
33
33
33
63
66
FC
ENDCHAR

STARTCHAR E
ENCODING 69
SWIDTH 611 0
DWIDTH 6 0
BBX 7 7 -1 0
BITMAP
7E
32
30
3C
60
64
FC
ENDCHAR

STARTCHAR F
ENCODING 70
SWIDTH 556 0
DWIDTH 6 0
BBX 7 7 -1 0
BITMAP
7E
32
30
7C
60
60
F0
ENDCHAR

STARTCHAR G
ENCODING 71
SWIDTH 778 0
DWIDTH 8 0
BBX 7 7 0 0
BITMAP
3E
62
C0
C0
DE
CC
78
ENDCHAR

STARTCHAR H
ENCODING 72
SWIDTH 778 0
DWIDTH 8 0
BBX 9 7 -1 0
BITMAP
7380
3300
3300
3F00
6600
6600
E700
ENDCHAR

STARTCHAR I
ENCODING 73
SWIDTH 389 0
DWIDTH 4 0
BBX 5 7 -1 0
BITMAP
78
30
30
60
60
60
F0
ENDCHAR

STARTCHAR J
ENCODING 74
SWIDTH 389 0
DWIDTH 4 0
BBX 6 9 -2 -2
BITMAP
3C
18
18
18
18
30
30
20
C0
ENDCHAR

STARTCHAR K
ENCODING 75
SWIDTH 722 0
DWIDTH 7 0
BBX 9 7 -1 0
BITMAP
7B80
3200
3400
7800
6C00
6600
F300
ENDCHAR

STARTCHAR L
ENCODING 76
SWIDTH 611 0
DWIDTH 6 0
BBX 7 7 -1 0
BITMAP
78
30
30
60
60
62
FE
ENDCHAR

STARTCHAR M
ENCODING 77
SWIDTH 944 0
DWIDTH 9 0
BBX 9 7 0 0
BITMAP
7380
3300
3500
5500
5A00
5A00
DB00
ENDCHAR

STARTCHAR N
ENCODING 78
SWIDTH 778 0
DWIDTH 8 0
BBX 8 7 0 0
BITMAP
67
32
32
5A
4C
4C
E4
ENDCHAR

STARTCHAR O
ENCODING 79
SWIDTH 833 0
DWIDTH 8 0
BBX 7 7 0 0
BITMAP
3C
66
C6
C6
C6
CC
78
ENDCHAR

STARTCHAR P
ENCODING 80
SWIDTH 667 0
DWIDTH 7 0
BBX 8 7 -1 0
BITMAP
7E
33
33
36
60
60
F0
ENDCHAR

STARTCHAR Q
ENCODING 81
SWIDTH 833 0
DWIDTH 8 0
BBX 7 9 0 -2
BITMAP
3C
66
C6
C6
C6
CC
78
32
4C
ENDCHAR

STARTCHAR R
ENCODING 82
SWIDTH 722 0
DWIDTH 7 0
BBX 8 7 -1 0
BITMAP
7E
33
33
3E
6C
66
F6
ENDCHAR

STARTCHAR S
ENCODING 83
SWIDTH 556 0
DWIDTH 6 0
BBX 6 7 0 0
BITMAP
3C
64
60
30
18
98
F0
ENDCHAR

STARTCHAR T
ENCODING 84
SWIDTH 611 0
DWIDTH 6 0
BBX 6 7 0 0
BITMAP
FC
B4
30
30
60
60
F0
ENDCHAR

STARTCHAR U
ENCODING 85
SWIDTH 778 0
DWIDTH 8 0
BBX 8 7 0 0
BITMAP
EF
66
66
CC
CC
CC
76
ENDCHAR

STARTCHAR V
ENCODING 86
SWIDTH 667 0
DWIDTH 7 0
BBX 8 7 0 0
BITMAP
F7
62
64
68
68
70
60
ENDCHAR

STARTCHAR W
ENCODING 87
SWIDTH 1000 0
DWIDTH 10 0
BBX 11 7 0 0
BITMAP
F2E0
6640
6680
6A80
7300
7300
6200
ENDCHAR

STARTCHAR X
ENCODING 88
SWIDTH 722 0
DWIDTH 7 0
BBX 8 7 -1 0
BITMAP
7B
34
38
18
38
4C
EE
ENDCHAR

STARTCHAR Y
ENCODING 89
SWIDTH 611 0
DWIDTH 6 0
BBX 7 7 0 0
BITMAP
C6
64
68
70
60
60
F0
ENDCHAR

STARTCHAR Z
ENCODING 90
SWIDTH 667 0
DWIDTH 7 0
BBX 7 7 0 0
BITMAP
7E
4C
18
30
60
C4
FC
ENDCHAR

STARTCHAR bracketleft
ENCODING 91
SWIDTH 333 0
DWIDTH 3 0
BBX 5 9 0 -2
BITMAP
38
30
30
60
60
60
C0
C0
E0
ENDCHAR

STARTCHAR backslash
ENCODING 92
SWIDTH 606 0
DWIDTH 6 0
BBX 6 9 0 -2
BITMAP
80
C0
60
20
30
18
08
0C
04
ENDCHAR

STARTCHAR bracketright
ENCODING 93
SWIDTH 333 0
DWIDTH 3 0
BBX 5 9 -1 -2
BITMAP
38
18
18
30
30
30
60
60
E0
ENDCHAR

STARTCHAR asciicircum
ENCODING 94
SWIDTH 606 0
DWIDTH 6 0
BBX 5 4 1 3
BITMAP
20
60
50
D8
ENDCHAR

STARTCHAR underscore
ENCODING 95
SWIDTH 500 0
DWIDTH 5 0
BBX 5 1 0 -2
BITMAP
F8
ENDCHAR

STARTCHAR quoteleft
ENCODING 96
SWIDTH 278 0
DWIDTH 3 0
BBX 2 3 1 4
BITMAP
40
80
C0
ENDCHAR

STARTCHAR a
ENCODING 97
SWIDTH 556 0
DWIDTH 6 0
BBX 6 5 1 0
BITMAP
34
58
D8
F0
58
ENDCHAR

STARTCHAR b
ENCODING 98
SWIDTH 537 0
DWIDTH 5 0
BBX 5 7 0 0
BITMAP
70
30
70
58
D8
D0
60
ENDCHAR

STARTCHAR c
ENCODING 99
SWIDTH 444 0
DWIDTH 4 0
BBX 5 5 0 0
BITMAP
38
68
C0
D0
60
ENDCHAR

STARTCHAR d
ENCODING 100
SWIDTH 556 0
DWIDTH 6 0
BBX 6 7 1 0
BITMAP
1C
0C
6C
D8
98
BC
58
ENDCHAR

STARTCHAR e
ENCODING 101
SWIDTH 444 0
DWIDTH 4 0
BBX 5 5 0 0
BITMAP
38
68
F0
C0
70
ENDCHAR

STARTCHAR f
ENCODING 102
SWIDTH 333 0
DWIDTH 3 0
BBX 6 9 -1 -2
BITMAP
1C
30
78
30
30
60
60
60
C0
ENDCHAR

STARTCHAR g
ENCODING 103
SWIDTH 500 0
DWIDTH 5 0
BBX 6 7 0 -2
BITMAP
34
68
68
30
70
D8
70
ENDCHAR

STARTCHAR h
ENCODING 104
SWIDTH 556 0
DWIDTH 6 0
BBX 6 7 0 0
BITMAP
70
30
38
6C
6C
D8
DC
ENDCHAR

STARTCHAR i
ENCODING 105
SWIDTH 333 0
DWIDTH 3 0
BBX 3 7 0 0
BITMAP
60
00
E0
60
C0
C0
E0
ENDCHAR

STARTCHAR j
ENCODING 106
SWIDTH 333 0
DWIDTH 3 0
BBX 5 9 -2 -2
BITMAP
18
00
38
18
18
30
30
30
E0
ENDCHAR

STARTCHAR k
ENCODING 107
SWIDTH 556 0
DWIDTH 6 0
BBX 6 7 0 0
BITMAP
70
30
6C
70
70
D8
D8
ENDCHAR

STARTCHAR l
ENCODING 108
SWIDTH 333 0
DWIDTH 3 0
BBX 4 7 0 0
BITMAP
70
30
60
60
60
C0
E0
ENDCHAR

STARTCHAR m
ENCODING 109
SWIDTH 833 0
DWIDTH 8 0
BBX 8 5 0 0
BITMAP
DB
6F
6B
D6
D7
ENDCHAR

STARTCHAR n
ENCODING 110
SWIDTH 556 0
DWIDTH 6 0
BBX 6 5 0 0
BITMAP
EC
7C
6C
D8
DC
ENDCHAR

STARTCHAR o
ENCODING 111
SWIDTH 556 0
DWIDTH 6 0
BBX 5 5 1 0
BITMAP
30
58
D8
D0
60
ENDCHAR

STARTCHAR p
ENCODING 112
SWIDTH 556 0
DWIDTH 6 0
BBX 7 7 -1 -2
BITMAP
74
3E
32
64
78
C0
C0
ENDCHAR

STARTCHAR q
ENCODING 113
SWIDTH 537 0
DWIDTH 5 0
BBX 6 7 0 -2
BITMAP
2C
7C
98
B8
70
30
30
ENDCHAR

STARTCHAR r
ENCODING 114
SWIDTH 389 0
DWIDTH 4 0
BBX 5 5 0 0
BITMAP
D8
70
60
C0
C0
ENDCHAR

STARTCHAR s
ENCODING 115
SWIDTH 444 0
DWIDTH 4 0
BBX 5 5 0 0
BITMAP
38
68
20
B0
E0
ENDCHAR

STARTCHAR t
ENCODING 116
SWIDTH 389 0
DWIDTH 4 0
BBX 4 7 0 0
BITMAP
20
60
F0
60
C0
D0
E0
ENDCHAR

STARTCHAR u
ENCODING 117
SWIDTH 556 0
DWIDTH 6 0
BBX 6 5 0 0
BITMAP
EC
6C
D8
D8
EC
ENDCHAR

STARTCHAR v
ENCODING 118
SWIDTH 556 0
DWIDTH 6 0
BBX 6 5 0 0
BITMAP
6C
A4
64
68
30
ENDCHAR

STARTCHAR w
ENCODING 119
SWIDTH 833 0
DWIDTH 8 0
BBX 9 5 -1 0
BITMAP
6580
A480
6C80
6900
3600
ENDCHAR

STARTCHAR x
ENCODING 120
SWIDTH 500 0
DWIDTH 5 0
BBX 5 5 0 0
BITMAP
C8
70
20
70
98
ENDCHAR

STARTCHAR y
ENCODING 121
SWIDTH 556 0
DWIDTH 6 0
BBX 6 7 0 -2
BITMAP
EC
6C
CC
D8
78
10
E0
ENDCHAR

STARTCHAR z
ENCODING 122
SWIDTH 500 0
DWIDTH 5 0
BBX 6 5 0 0
BITMAP
74
18
30
60
B8
ENDCHAR

STARTCHAR braceleft
ENCODING 123
SWIDTH 333 0
DWIDTH 3 0
BBX 4 9 0 -2
BITMAP
10
20
60
40
80
40
C0
40
20
ENDCHAR

STARTCHAR bar
ENCODING 124
SWIDTH 606 0
DWIDTH 6 0
BBX 2 9 2 -2
BITMAP
C0
C0
C0
C0
C0
C0
C0
C0
C0
ENDCHAR

STARTCHAR braceright
ENCODING 125
SWIDTH 333 0
DWIDTH 3 0
BBX 4 9 -1 -2
BITMAP
40
20
30
20
10
20
60
40
80
ENDCHAR

STARTCHAR asciitilde
ENCODING 126
SWIDTH 606 0
DWIDTH 6 0
BBX 6 2 0 2
BITMAP
74
B8
ENDCHAR

STARTCHAR space
ENCODING 160
SWIDTH 250 0
DWIDTH 3 0
BBX 0 0 0 0
BITMAP
ENDCHAR

STARTCHAR Aogonek
ENCODING 161
SWIDTH 722 0
DWIDTH 7 0
BBX 8 9 -1 -2
BITMAP
02
06
0E
16
3E
46
EF
04
03
ENDCHAR

STARTCHAR breve
ENCODING 162
SWIDTH 333 0
DWIDTH 3 0
BBX 4 2 0 6
BITMAP
90
60
ENDCHAR

STARTCHAR Lslash
ENCODING 163
SWIDTH 611 0
DWIDTH 6 0
BBX 7 7 -1 0
BITMAP
78
30
38
60
E0
62
FE
ENDCHAR

STARTCHAR currency
ENCODING 164
SWIDTH 606 0
DWIDTH 6 0
BBX 6 5 0 1
BITMAP
B4
48
CC
48
B4
ENDCHAR

STARTCHAR Lcaron
ENCODING 165
SWIDTH 611 0
DWIDTH 6 0
BBX 7 7 -1 0
BITMAP
7A
32
34
60
60
62
FE
ENDCHAR

STARTCHAR Sacute
ENCODING 166
SWIDTH 556 0
DWIDTH 6 0
BBX 6 10 0 0
BITMAP
04
08
00
3C
64
60
30
18
98
F0
ENDCHAR

STARTCHAR section
ENCODING 167
SWIDTH 556 0
DWIDTH 5 0
BBX 4 9 0 -2
BITMAP
70
D0
C0
A0
90
50
30
B0
E0
ENDCHAR

STARTCHAR dieresis
ENCODING 168
SWIDTH 333 0
DWIDTH 3 0
BBX 3 1 1 6
BITMAP
A0
ENDCHAR

STARTCHAR Scaron
ENCODING 169
SWIDTH 556 0
DWIDTH 6 0
BBX 6 10 0 0
BITMAP
14
08
00
3C
64
60
30
18
98
F0
ENDCHAR

STARTCHAR Scommaaccent
ENCODING 170
SWIDTH 556 0
DWIDTH 6 0
BBX 6 10 0 -3
BITMAP
3C
64
60
30
18
98
F0
00
20
40
ENDCHAR

STARTCHAR Tcaron
ENCODING 171
SWIDTH 611 0
DWIDTH 6 0
BBX 6 10 0 0
BITMAP
28
10
00
FC
B4
30
30
60
60
F0
ENDCHAR

STARTCHAR Zacute
ENCODING 172
SWIDTH 667 0
DWIDTH 7 0
BBX 7 10 0 0
BITMAP
04
08
00
7E
4C
18
30
60
C4
FC
ENDCHAR

STARTCHAR hyphen
ENCODING 173
SWIDTH 389 0
DWIDTH 4 0
BBX 4 1 0 2
BITMAP
F0
ENDCHAR

STARTCHAR Zcaron
ENCODING 174
SWIDTH 667 0
DWIDTH 7 0
BBX 7 10 0 0
BITMAP
14
08
00
7E
4C
18
30
60
C4
FC
ENDCHAR

STARTCHAR Zdotaccent
ENCODING 175
SWIDTH 667 0
DWIDTH 7 0
BBX 7 9 0 0
BITMAP
08
00
7E
4C
18
30
60
C4
FC
ENDCHAR

STARTCHAR degree
ENCODING 176
SWIDTH 396 0
DWIDTH 4 0
BBX 4 4 0 3
BITMAP
60
B0
B0
60
ENDCHAR

STARTCHAR aogonek
ENCODING 177
SWIDTH 556 0
DWIDTH 6 0
BBX 6 7 1 -2
BITMAP
34
58
D8
F0
58
10
0C
ENDCHAR

STARTCHAR ogonek
ENCODING 178
SWIDTH 333 0
DWIDTH 3 0
BBX 3 2 0 -2
BITMAP
80
60
ENDCHAR

STARTCHAR lslash
ENCODING 179
SWIDTH 333 0
DWIDTH 3 0
BBX 5 7 0 0
BITMAP
70
38
60
E0
60
C0
E0
ENDCHAR

STARTCHAR acute
ENCODING 180
SWIDTH 333 0
DWIDTH 3 0
BBX 2 2 1 6
BITMAP
40
80
ENDCHAR

STARTCHAR lcaron
ENCODING 181
SWIDTH 434 0
DWIDTH 3 0
BBX 6 7 0 0
BITMAP
74
34
68
60
60
C0
E0
ENDCHAR

STARTCHAR sacute
ENCODING 182
SWIDTH 444 0
DWIDTH 4 0
BBX 5 8 0 0
BITMAP
08
10
00
38
68
20
B0
E0
ENDCHAR

STARTCHAR caron
ENCODING 183
SWIDTH 333 0
DWIDTH 3 0
BBX 3 2 1 6
BITMAP
A0
40
ENDCHAR

STARTCHAR commaaccent
ENCODING 184
SWIDTH 333 0
DWIDTH 3 0
BBX 2 2 0 -3
BITMAP
40
80
ENDCHAR

STARTCHAR scaron
ENCODING 185
SWIDTH 444 0
DWIDTH 4 0
BBX 5 8 0 0
BITMAP
28
10
00
38
68
20
B0
E0
ENDCHAR

STARTCHAR scommaaccent
ENCODING 186
SWIDTH 444 0
DWIDTH 4 0
BBX 5 8 0 -3
BITMAP
38
68
20
B0
E0
00
40
80
ENDCHAR

STARTCHAR tcaron
ENCODING 187
SWIDTH 439 0
DWIDTH 4 0
BBX 5 8 0 0
BITMAP
08
28
60
F0
60
C0
D0
E0
ENDCHAR

STARTCHAR zacute
ENCODING 188
SWIDTH 500 0
DWIDTH 5 0
BBX 6 8 0 0
BITMAP
08
10
00
74
18
30
60
B8
ENDCHAR

STARTCHAR hungarumlaut
ENCODING 189
SWIDTH 333 0
DWIDTH 3 0
BBX 4 2 0 6
BITMAP
50
A0
ENDCHAR

STARTCHAR zcaron
ENCODING 190
SWIDTH 500 0
DWIDTH 5 0
BBX 6 8 0 0
BITMAP
28
10
00
74
18
30
60
B8
ENDCHAR

STARTCHAR zdotaccent
ENCODING 191
SWIDTH 500 0
DWIDTH 5 0
BBX 6 7 0 0
BITMAP
10
00
74
18
30
60
B8
ENDCHAR

STARTCHAR Racute
ENCODING 192
SWIDTH 722 0
DWIDTH 7 0
BBX 8 10 -1 0
BITMAP
04
08
00
7E
33
33
3E
6C
66
F6
ENDCHAR

STARTCHAR Aacute
ENCODING 193
SWIDTH 722 0
DWIDTH 7 0
BBX 8 10 -1 0
BITMAP
01
02
00
02
06
0E
16
3E
46
EF
ENDCHAR

STARTCHAR Acircumflex
ENCODING 194
SWIDTH 722 0
DWIDTH 7 0
BBX 8 10 -1 0
BITMAP
02
05
00
02
06
0E
16
3E
46
EF
ENDCHAR

STARTCHAR Abreve
ENCODING 195
SWIDTH 722 0
DWIDTH 7 0
BBX 9 10 -1 0
BITMAP
0480
0300
0000
0200
0600
0E00
1600
3E00
4600
EF00
ENDCHAR

STARTCHAR Adieresis
ENCODING 196
SWIDTH 722 0
DWIDTH 7 0
BBX 8 9 -1 0
BITMAP
05
00
02
06
0E
16
3E
46
EF
ENDCHAR

STARTCHAR Lacute
ENCODING 197
SWIDTH 611 0
DWIDTH 6 0
BBX 7 10 -1 0
BITMAP
04
08
00
78
30
30
60
60
62
FE
ENDCHAR

STARTCHAR Cacute
ENCODING 198
SWIDTH 685 0
DWIDTH 7 0
BBX 6 10 1 0
BITMAP
04
08
00
3C
64
C0
C0
C0
C8
70
ENDCHAR

STARTCHAR Ccedilla
ENCODING 199
SWIDTH 685 0
DWIDTH 7 0
BBX 6 10 1 -3
BITMAP
3C
64
C0
C0
C0
C8
70
20
10
60
ENDCHAR

STARTCHAR Ccaron
ENCODING 200
SWIDTH 685 0
DWIDTH 7 0
BBX 6 10 1 0
BITMAP
14
08
00
3C
64
C0
C0
C0
C8
70
ENDCHAR

STARTCHAR Eacute
ENCODING 201
SWIDTH 611 0
DWIDTH 6 0
BBX 7 10 -1 0
BITMAP
04
08
00
7E
32
30
3C
60
64
FC
ENDCHAR

STARTCHAR Eogonek
ENCODING 202
SWIDTH 611 0
DWIDTH 6 0
BBX 7 9 -1 -2
BITMAP
7E
32
30
3C
60
64
FC
10
0C
ENDCHAR

STARTCHAR Edieresis
ENCODING 203
SWIDTH 611 0
DWIDTH 6 0
BBX 7 9 -1 0
BITMAP
14
00
7E
32
30
3C
60
64
FC
ENDCHAR

STARTCHAR Ecaron
ENCODING 204
SWIDTH 611 0
DWIDTH 6 0
BBX 7 10 -1 0
BITMAP
14
08
00
7E
32
30
3C
60
64
FC
ENDCHAR

STARTCHAR Iacute
ENCODING 205
SWIDTH 389 0
DWIDTH 4 0
BBX 5 10 -1 0
BITMAP
08
10
00
78
30
30
60
60
60
F0
ENDCHAR

STARTCHAR Icircumflex
ENCODING 206
SWIDTH 389 0
DWIDTH 4 0
BBX 5 10 -1 0
BITMAP
10
28
00
78
30
30
60
60
60
F0
ENDCHAR

STARTCHAR Dcaron
ENCODING 207
SWIDTH 778 0
DWIDTH 8 0
BBX 8 10 -1 0
BITMAP
14
08
00
7E
33
33
33
63
66
FC
ENDCHAR

STARTCHAR Dcroat
ENCODING 208
SWIDTH 778 0
DWIDTH 8 0
BBX 8 7 -1 0
BITMAP
7E
33
33
FB
63
66
FC
ENDCHAR

STARTCHAR Nacute
ENCODING 209
SWIDTH 778 0
DWIDTH 8 0
BBX 8 10 0 0
BITMAP
04
08
00
67
32
32
5A
4C
4C
E4
ENDCHAR

STARTCHAR Ncaron
ENCODING 210
SWIDTH 778 0
DWIDTH 8 0
BBX 8 10 0 0
BITMAP
14
08
00
67
32
32
5A
4C
4C
E4
ENDCHAR

STARTCHAR Oacute
ENCODING 211
SWIDTH 833 0
DWIDTH 8 0
BBX 7 10 0 0
BITMAP
04
08
00
3C
66
C6
C6
C6
CC
78
ENDCHAR

STARTCHAR Ocircumflex
ENCODING 212
SWIDTH 833 0
DWIDTH 8 0
BBX 7 10 0 0
BITMAP
08
14
00
3C
66
C6
C6
C6
CC
78
ENDCHAR

STARTCHAR Ohungarumlaut
ENCODING 213
SWIDTH 833 0
DWIDTH 8 0
BBX 7 10 0 0
BITMAP
0A
14
00
3C
66
C6
C6
C6
CC
78
ENDCHAR

STARTCHAR Odieresis
ENCODING 214
SWIDTH 833 0
DWIDTH 8 0
BBX 7 9 0 0
BITMAP
14
00
3C
66
C6
C6
C6
CC
78
ENDCHAR

STARTCHAR multiply
ENCODING 215
SWIDTH 606 0
DWIDTH 6 0
BBX 4 4 1 1
BITMAP
90
60
60
90
ENDCHAR

STARTCHAR Rcaron
ENCODING 216
SWIDTH 722 0
DWIDTH 7 0
BBX 8 10 -1 0
BITMAP
14
08
00
7E
33
33
3E
6C
66
F6
ENDCHAR

STARTCHAR Uring
ENCODING 217
SWIDTH 778 0
DWIDTH 8 0
BBX 8 10 0 0
BITMAP
08
14
08
EF
66
66
CC
CC
CC
76
ENDCHAR

STARTCHAR Uacute
ENCODING 218
SWIDTH 778 0
DWIDTH 8 0
BBX 8 10 0 0
BITMAP
04
08
00
EF
66
66
CC
CC
CC
76
ENDCHAR

STARTCHAR Uhungarumlaut
ENCODING 219
SWIDTH 778 0
DWIDTH 8 0
BBX 8 10 0 0
BITMAP
14
28
00
EF
66
66
CC
CC
CC
76
ENDCHAR

STARTCHAR Udieresis
ENCODING 220
SWIDTH 778 0
DWIDTH 8 0
BBX 8 9 0 0
BITMAP
14
00
EF
66
66
CC
CC
CC
76
ENDCHAR

STARTCHAR Yacute
ENCODING 221
SWIDTH 611 0
DWIDTH 6 0
BBX 7 10 0 0
BITMAP
08
10
00
C6
64
68
70
60
60
F0
ENDCHAR

STARTCHAR Tcommaaccent
ENCODING 222
SWIDTH 611 0
DWIDTH 6 0
BBX 6 10 0 -3
BITMAP
FC
B4
30
30
60
60
F0
00
40
80
ENDCHAR

STARTCHAR germandbls
ENCODING 223
SWIDTH 556 0
DWIDTH 6 0
BBX 7 9 -2 -2
BITMAP
0C
1A
3A
1C
1A
32
34
30
E0
ENDCHAR

STARTCHAR racute
ENCODING 224
SWIDTH 389 0
DWIDTH 4 0
BBX 5 8 0 0
BITMAP
10
20
00
D8
70
60
C0
C0
ENDCHAR

STARTCHAR aacute
ENCODING 225
SWIDTH 556 0
DWIDTH 6 0
BBX 6 8 1 0
BITMAP
08
10
00
34
58
D8
F0
58
ENDCHAR

STARTCHAR acircumflex
ENCODING 226
SWIDTH 556 0
DWIDTH 6 0
BBX 6 8 1 0
BITMAP
10
28
00
34
58
D8
F0
58
ENDCHAR

STARTCHAR abreve
ENCODING 227
SWIDTH 556 0
DWIDTH 6 0
BBX 6 8 1 0
BITMAP
24
18
00
34
58
D8
F0
58
ENDCHAR

STARTCHAR adieresis
ENCODING 228
SWIDTH 556 0
DWIDTH 6 0
BBX 6 7 1 0
BITMAP
28
00
34
58
D8
F0
58
ENDCHAR

STARTCHAR lacute
ENCODING 229
SWIDTH 333 0
DWIDTH 3 0
BBX 4 10 0 0
BITMAP
10
20
00
70
30
60
60
60
C0
E0
ENDCHAR

STARTCHAR cacute
ENCODING 230
SWIDTH 444 0
DWIDTH 4 0
BBX 5 8 0 0
BITMAP
08
10
00
38
68
C0
D0
60
ENDCHAR

STARTCHAR ccedilla
ENCODING 231
SWIDTH 444 0
DWIDTH 4 0
BBX 5 8 0 -3
BITMAP
38
68
C0
D0
60
40
20
C0
ENDCHAR

STARTCHAR ccaron
ENCODING 232
SWIDTH 444 0
DWIDTH 4 0
BBX 5 8 0 0
BITMAP
28
10
00
38
68
C0
D0
60
ENDCHAR

STARTCHAR eacute
ENCODING 233
SWIDTH 444 0
DWIDTH 4 0
BBX 5 8 0 0
BITMAP
08
10
00
38
68
F0
C0
70
ENDCHAR

STARTCHAR eogonek
ENCODING 234
SWIDTH 444 0
DWIDTH 4 0
BBX 5 7 0 -2
BITMAP
38
68
F0
C0
70
40
30
ENDCHAR

STARTCHAR edieresis
ENCODING 235
SWIDTH 444 0
DWIDTH 4 0
BBX 6 7 0 0
BITMAP
14
00
38
68
F0
C0
70
ENDCHAR

STARTCHAR ecaron
ENCODING 236
SWIDTH 444 0
DWIDTH 4 0
BBX 5 8 0 0
BITMAP
28
10
00
38
68
F0
C0
70
ENDCHAR

STARTCHAR iacute
ENCODING 237
SWIDTH 333 0
DWIDTH 3 0
BBX 3 8 0 0
BITMAP
20
40
00
E0
60
C0
C0
E0
ENDCHAR

STARTCHAR icircumflex
ENCODING 238
SWIDTH 333 0
DWIDTH 3 0
BBX 4 8 0 0
BITMAP
20
50
00
E0
60
C0
C0
E0
ENDCHAR

STARTCHAR dcaron
ENCODING 239
SWIDTH 664 0
DWIDTH 6 0
BBX 8 7 1 0
BITMAP
1D
0D
6E
D8
98
BC
58
ENDCHAR

STARTCHAR dcroat
ENCODING 240
SWIDTH 556 0
DWIDTH 6 0
BBX 7 7 1 0
BITMAP
1E
0C
6C
D8
98
BC
58
ENDCHAR

STARTCHAR nacute
ENCODING 241
SWIDTH 556 0
DWIDTH 6 0
BBX 6 8 0 0
BITMAP
08
10
00
EC
7C
6C
D8
DC
ENDCHAR

STARTCHAR ncaron
ENCODING 242
SWIDTH 556 0
DWIDTH 6 0
BBX 6 8 0 0
BITMAP
28
10
00
EC
7C
6C
D8
DC
ENDCHAR

STARTCHAR oacute
ENCODING 243
SWIDTH 556 0
DWIDTH 6 0
BBX 5 8 1 0
BITMAP
08
10
00
30
58
D8
D0
60
ENDCHAR

STARTCHAR ocircumflex
ENCODING 244
SWIDTH 556 0
DWIDTH 6 0
BBX 5 8 1 0
BITMAP
10
28
00
30
58
D8
D0
60
ENDCHAR

STARTCHAR ohungarumlaut
ENCODING 245
SWIDTH 556 0
DWIDTH 6 0
BBX 6 8 1 0
BITMAP
14
28
00
30
58
D8
D0
60
ENDCHAR

STARTCHAR odieresis
ENCODING 246
SWIDTH 556 0
DWIDTH 6 0
BBX 5 7 1 0
BITMAP
28
00
30
58
D8
D0
60
ENDCHAR

STARTCHAR divide
ENCODING 247
SWIDTH 606 0
DWIDTH 6 0
BBX 5 5 1 1
BITMAP
20
00
F8
00
20
ENDCHAR

STARTCHAR rcaron
ENCODING 248
SWIDTH 389 0
DWIDTH 4 0
BBX 5 8 0 0
BITMAP
50
20
00
D8
70
60
C0
C0
ENDCHAR

STARTCHAR uring
ENCODING 249
SWIDTH 556 0
DWIDTH 6 0
BBX 6 9 0 0
BITMAP
10
28
10
00
EC
6C
D8
D8
EC
ENDCHAR

STARTCHAR uacute
ENCODING 250
SWIDTH 556 0
DWIDTH 6 0
BBX 6 8 0 0
BITMAP
08
10
00
EC
6C
D8
D8
EC
ENDCHAR

STARTCHAR uhungarumlaut
ENCODING 251
SWIDTH 556 0
DWIDTH 6 0
BBX 6 8 0 0
BITMAP
14
28
00
EC
6C
D8
D8
EC
ENDCHAR

STARTCHAR udieresis
ENCODING 252
SWIDTH 556 0
DWIDTH 6 0
BBX 6 7 0 0
BITMAP
28
00
EC
6C
D8
D8
EC
ENDCHAR

STARTCHAR yacute
ENCODING 253
SWIDTH 556 0
DWIDTH 6 0
BBX 6 10 0 -2
BITMAP
08
10
00
EC
6C
CC
D8
78
10
E0
ENDCHAR

STARTCHAR tcommaaccent
ENCODING 254
SWIDTH 389 0
DWIDTH 4 0
BBX 4 10 0 -3
BITMAP
20
60
F0
60
C0
D0
E0
00
40
80
ENDCHAR

STARTCHAR dotaccent
ENCODING 255
SWIDTH 333 0
DWIDTH 3 0
BBX 1 1 1 6
BITMAP
80
ENDCHAR
ENDFONT
